<svg width="25" height="24" viewBox="0 0 25 24" fill="none" xmlns="http://www.w3.org/2000/svg">
<path d="M22.731 11.9345C22.731 11.8829 22.731 11.8243 22.7286 11.7563C22.7263 11.5665 22.7216 11.3532 22.7169 11.1259C22.6981 10.472 22.6653 9.82041 22.6138 9.20635C22.5435 8.36025 22.4403 7.65478 22.2997 7.1251C22.1513 6.57232 21.8604 6.06818 21.4561 5.66306C21.0518 5.25794 20.5483 4.96603 19.9958 4.8165C19.3325 4.63838 18.0341 4.52822 16.206 4.46025C15.3364 4.42744 14.406 4.40635 13.4755 4.39463C13.1497 4.38994 12.8474 4.3876 12.5755 4.38525H11.8864C11.6146 4.3876 11.3122 4.38994 10.9864 4.39463C10.056 4.40635 9.12549 4.42744 8.25596 4.46025C6.42783 4.53057 5.12705 4.64072 4.46611 4.8165C3.91346 4.96566 3.40971 5.25745 3.00536 5.66262C2.601 6.0678 2.31024 6.57214 2.16221 7.1251C2.01924 7.65478 1.91846 8.36025 1.84814 9.20635C1.79658 9.82041 1.76377 10.472 1.74502 11.1259C1.73799 11.3532 1.73564 11.5665 1.7333 11.7563C1.7333 11.8243 1.73096 11.8829 1.73096 11.9345V12.0657C1.73096 12.1173 1.73096 12.1759 1.7333 12.2438C1.73564 12.4337 1.74033 12.647 1.74502 12.8743C1.76377 13.5282 1.79658 14.1798 1.84814 14.7938C1.91846 15.6399 2.02158 16.3454 2.16221 16.8751C2.46221 17.9978 3.34346 18.8837 4.46611 19.1837C5.12705 19.3618 6.42783 19.472 8.25596 19.5399C9.12549 19.5728 10.056 19.5938 10.9864 19.6056C11.3122 19.6103 11.6146 19.6126 11.8864 19.6149H12.5755C12.8474 19.6126 13.1497 19.6103 13.4755 19.6056C14.406 19.5938 15.3364 19.5728 16.206 19.5399C18.0341 19.4696 19.3349 19.3595 19.9958 19.1837C21.1185 18.8837 21.9997 18.0001 22.2997 16.8751C22.4427 16.3454 22.5435 15.6399 22.6138 14.7938C22.6653 14.1798 22.6981 13.5282 22.7169 12.8743C22.7239 12.647 22.7263 12.4337 22.7286 12.2438C22.7286 12.1759 22.731 12.1173 22.731 12.0657V11.9345ZM21.0435 12.0563C21.0435 12.1056 21.0435 12.1595 21.0411 12.2228C21.0388 12.4056 21.0341 12.6071 21.0294 12.8251C21.013 13.4485 20.9802 14.072 20.931 14.6509C20.8677 15.4056 20.7786 16.0243 20.6685 16.4392C20.5231 16.9806 20.0966 17.4095 19.5575 17.5524C19.0653 17.6837 17.8255 17.7892 16.1403 17.8524C15.2872 17.8853 14.3685 17.9063 13.4521 17.9181C13.131 17.9228 12.8333 17.9251 12.5661 17.9251H11.8958L11.0099 17.9181C10.0935 17.9063 9.17705 17.8853 8.32158 17.8524C6.63643 17.7868 5.39424 17.6837 4.90439 17.5524C4.36533 17.4071 3.93877 16.9806 3.79346 16.4392C3.6833 16.0243 3.59424 15.4056 3.53096 14.6509C3.48174 14.072 3.45127 13.4485 3.43252 12.8251C3.42549 12.6071 3.42314 12.4032 3.4208 12.2228C3.4208 12.1595 3.41846 12.1032 3.41846 12.0563V11.9438C3.41846 11.8946 3.41846 11.8407 3.4208 11.7774C3.42314 11.5946 3.42783 11.3931 3.43252 11.1751C3.44893 10.5517 3.48174 9.92822 3.53096 9.34932C3.59424 8.59463 3.6833 7.97588 3.79346 7.56103C3.93877 7.01963 4.36533 6.59072 4.90439 6.44775C5.39658 6.3165 6.63643 6.21103 8.32158 6.14775C9.17471 6.11494 10.0935 6.09385 11.0099 6.08213C11.331 6.07744 11.6286 6.0751 11.8958 6.0751H12.5661L13.4521 6.08213C14.3685 6.09385 15.2849 6.11494 16.1403 6.14775C17.8255 6.21338 19.0677 6.3165 19.5575 6.44775C20.0966 6.59307 20.5231 7.01963 20.6685 7.56103C20.7786 7.97588 20.8677 8.59463 20.931 9.34932C20.9802 9.92822 21.0106 10.5517 21.0294 11.1751C21.0364 11.3931 21.0388 11.597 21.0411 11.7774C21.0411 11.8407 21.0435 11.897 21.0435 11.9438V12.0563ZM10.145 15.1407L15.5825 11.9767L10.145 8.85947V15.1407Z" fill="#161917"/>
</svg>
