<svg width="24" height="25" viewBox="0 0 24 25" fill="none" xmlns="http://www.w3.org/2000/svg">
<rect x="0.5" y="1.31738" width="23" height="23" rx="2.5" stroke="#A3D95D"/>
<path d="M12 4.81738C12.5523 4.81738 13 5.2651 13 5.81738V11.8174H19C19.5523 11.8174 20 12.2651 20 12.8174C20 13.3697 19.5523 13.8174 19 13.8174H13V19.8174C13 20.3697 12.5523 20.8174 12 20.8174C11.4477 20.8174 11 20.3697 11 19.8174V13.8174H5C4.44772 13.8174 4 13.3697 4 12.8174C4 12.2651 4.44772 11.8174 5 11.8174H11V5.81738C11 5.2651 11.4477 4.81738 12 4.81738Z" fill="#A3D95D"/>
</svg>
