<svg width="16" height="17" viewBox="0 0 16 17" fill="none" xmlns="http://www.w3.org/2000/svg">
<path d="M16 8.5C16 8.5 13 3 8 3C3 3 0 8.5 0 8.5C0 8.5 3 14 8 14C13 14 16 8.5 16 8.5ZM1.1727 8.5C1.22963 8.41321 1.29454 8.31677 1.36727 8.21242C1.70216 7.73193 2.19631 7.0929 2.83211 6.45711C4.12103 5.16818 5.88062 4 8 4C10.1194 4 11.879 5.16818 13.1679 6.45711C13.8037 7.0929 14.2978 7.73193 14.6327 8.21242C14.7055 8.31677 14.7704 8.41321 14.8273 8.5C14.7704 8.58679 14.7055 8.68323 14.6327 8.78758C14.2978 9.26807 13.8037 9.9071 13.1679 10.5429C11.879 11.8318 10.1194 13 8 13C5.88062 13 4.12103 11.8318 2.83211 10.5429C2.19631 9.9071 1.70216 9.26807 1.36727 8.78758C1.29454 8.68323 1.22963 8.58679 1.1727 8.5Z" fill="black"/>
<path d="M8 6C6.61929 6 5.5 7.11929 5.5 8.5C5.5 9.88071 6.61929 11 8 11C9.38071 11 10.5 9.88071 10.5 8.5C10.5 7.11929 9.38071 6 8 6ZM4.5 8.5C4.5 6.567 6.067 5 8 5C9.933 5 11.5 6.567 11.5 8.5C11.5 10.433 9.933 12 8 12C6.067 12 4.5 10.433 4.5 8.5Z" fill="black"/>
</svg>
