<svg width="25" height="24" viewBox="0 0 25 24" fill="none" xmlns="http://www.w3.org/2000/svg">
<path fill-rule="evenodd" clip-rule="evenodd" d="M12.231 2C9.51496 2 9.17496 2.012 8.10796 2.06C7.04396 2.109 6.31696 2.278 5.68096 2.525C5.01344 2.77584 4.40871 3.16933 3.90896 3.678C3.40031 4.17777 3.00683 4.7825 2.75596 5.45C2.50896 6.086 2.33996 6.813 2.29096 7.877C2.24196 8.944 2.23096 9.284 2.23096 12C2.23096 14.716 2.24196 15.056 2.29096 16.123C2.33996 17.187 2.50896 17.914 2.75596 18.55C3.00686 19.2175 3.40034 19.8222 3.90896 20.322C4.40875 20.8306 5.01347 21.2241 5.68096 21.475C6.31696 21.722 7.04396 21.891 8.10796 21.94C9.17496 21.988 9.51496 22 12.231 22C14.947 22 15.287 21.988 16.354 21.94C17.418 21.891 18.145 21.722 18.781 21.475C19.4485 21.2241 20.0532 20.8306 20.553 20.322C21.0616 19.8222 21.4551 19.2175 21.706 18.55C21.953 17.914 22.122 17.187 22.171 16.123C22.219 15.056 22.231 14.716 22.231 12C22.231 9.284 22.219 8.944 22.171 7.877C22.122 6.813 21.953 6.086 21.706 5.45C21.4551 4.7825 21.0616 4.17777 20.553 3.678C20.0532 3.16933 19.4485 2.77584 18.781 2.525C18.145 2.278 17.418 2.109 16.354 2.06C15.287 2.012 14.947 2 12.231 2ZM12.231 3.802C14.901 3.802 15.217 3.812 16.271 3.86C17.247 3.905 17.776 4.067 18.129 4.204C18.595 4.386 18.929 4.603 19.279 4.952C19.629 5.302 19.845 5.636 20.027 6.102C20.163 6.455 20.327 6.984 20.371 7.959C20.419 9.014 20.429 9.329 20.429 12C20.429 14.67 20.419 14.986 20.371 16.04C20.326 17.016 20.163 17.545 20.027 17.898C19.8666 18.3324 19.611 18.7253 19.279 19.048C18.929 19.398 18.595 19.614 18.129 19.796C17.776 19.932 17.247 20.096 16.272 20.14C15.218 20.188 14.902 20.198 12.231 20.198C9.56096 20.198 9.24396 20.188 8.19096 20.14C7.21496 20.095 6.68596 19.932 6.33296 19.796C5.89854 19.6357 5.50557 19.3801 5.18296 19.048C4.85082 18.7254 4.59522 18.3324 4.43496 17.898C4.29796 17.545 4.13496 17.016 4.09096 16.041C4.04296 14.986 4.03296 14.671 4.03296 12C4.03296 9.33 4.04296 9.014 4.09096 7.96C4.13596 6.984 4.29796 6.455 4.43496 6.102C4.61696 5.636 4.83396 5.302 5.18296 4.952C5.53296 4.602 5.86696 4.386 6.33296 4.204C6.68596 4.067 7.21496 3.904 8.18996 3.86C9.24496 3.812 9.55996 3.802 12.231 3.802ZM12.231 15.333C11.347 15.333 10.4992 14.9818 9.87417 14.3568C9.24911 13.7317 8.89796 12.884 8.89796 12C8.89796 11.116 9.24911 10.2683 9.87417 9.64321C10.4992 9.01815 11.347 8.667 12.231 8.667C13.1149 8.667 13.9627 9.01815 14.5877 9.64321C15.2128 10.2683 15.564 11.116 15.564 12C15.564 12.884 15.2128 13.7317 14.5877 14.3568C13.9627 14.9818 13.1149 15.333 12.231 15.333ZM12.231 6.865C11.5566 6.865 10.8889 6.99782 10.2659 7.25588C9.64287 7.51394 9.07679 7.89218 8.59996 8.36901C8.12313 8.84584 7.74489 9.41191 7.48684 10.0349C7.22878 10.6579 7.09596 11.3257 7.09596 12C7.09596 12.6743 7.22878 13.3421 7.48684 13.9651C7.74489 14.5881 8.12313 15.1542 8.59996 15.631C9.07679 16.1078 9.64287 16.4861 10.2659 16.7441C10.8889 17.0022 11.5566 17.135 12.231 17.135C13.5928 17.135 14.899 16.594 15.8619 15.631C16.8249 14.668 17.366 13.3619 17.366 12C17.366 10.6381 16.8249 9.33201 15.8619 8.36901C14.899 7.40601 13.5928 6.865 12.231 6.865ZM18.769 6.662C18.769 6.81959 18.7379 6.97563 18.6776 7.12122C18.6173 7.26681 18.5289 7.3991 18.4175 7.51053C18.3061 7.62196 18.1738 7.71035 18.0282 7.77066C17.8826 7.83096 17.7265 7.862 17.569 7.862C17.4114 7.862 17.2553 7.83096 17.1097 7.77066C16.9641 7.71035 16.8319 7.62196 16.7204 7.51053C16.609 7.3991 16.5206 7.26681 16.4603 7.12122C16.4 6.97563 16.369 6.81959 16.369 6.662C16.369 6.34374 16.4954 6.03852 16.7204 5.81347C16.9455 5.58843 17.2507 5.462 17.569 5.462C17.8872 5.462 18.1924 5.58843 18.4175 5.81347C18.6425 6.03852 18.769 6.34374 18.769 6.662Z" fill="#161917"/>
</svg>
