<svg width="25" height="24" viewBox="0 0 25 24" fill="none" xmlns="http://www.w3.org/2000/svg">
<path d="M9.5 15.75C9.5 15.3358 9.83579 15 10.25 15H14.75C15.1642 15 15.5 15.3358 15.5 15.75C15.5 16.1642 15.1642 16.5 14.75 16.5H10.25C9.83579 16.5 9.5 16.1642 9.5 15.75Z" fill="#161917"/>
<path d="M6.5 11.25C6.5 10.8358 6.83579 10.5 7.25 10.5H17.75C18.1642 10.5 18.5 10.8358 18.5 11.25C18.5 11.6642 18.1642 12 17.75 12H7.25C6.83579 12 6.5 11.6642 6.5 11.25Z" fill="#161917"/>
<path d="M3.5 6.75C3.5 6.33579 3.83579 6 4.25 6H20.75C21.1642 6 21.5 6.33579 21.5 6.75C21.5 7.16421 21.1642 7.5 20.75 7.5H4.25C3.83579 7.5 3.5 7.16421 3.5 6.75Z" fill="#161917"/>
</svg>
