<svg width="48" height="41" viewBox="0 0 48 41" fill="none" xmlns="http://www.w3.org/2000/svg">
<rect x="0.5" y="0.759766" width="47" height="39" rx="3.5" fill="white"/>
<rect x="0.5" y="0.759766" width="47" height="39" rx="3.5" stroke="#DDDFE8"/>
<path fill-rule="evenodd" clip-rule="evenodd" d="M20.6459 13.9057C20.6924 13.8591 20.7475 13.8222 20.8083 13.797C20.869 13.7718 20.9341 13.7588 20.9999 13.7588C21.0657 13.7588 21.1308 13.7718 21.1916 13.797C21.2523 13.8222 21.3075 13.8591 21.3539 13.9057L27.3539 19.9057C27.4005 19.9521 27.4374 20.0073 27.4626 20.068C27.4878 20.1288 27.5008 20.1939 27.5008 20.2597C27.5008 20.3254 27.4878 20.3906 27.4626 20.4513C27.4374 20.5121 27.4005 20.5672 27.3539 20.6137L21.3539 26.6137C21.26 26.7076 21.1327 26.7603 20.9999 26.7603C20.8671 26.7603 20.7398 26.7076 20.6459 26.6137C20.552 26.5198 20.4993 26.3925 20.4993 26.2597C20.4993 26.1269 20.552 25.9996 20.6459 25.9057L26.2929 20.2597L20.6459 14.6137C20.5994 14.5672 20.5624 14.5121 20.5372 14.4513C20.512 14.3906 20.499 14.3255 20.499 14.2597C20.499 14.1939 20.512 14.1288 20.5372 14.068C20.5624 14.0073 20.5994 13.9521 20.6459 13.9057Z" fill="#ADB5BD"/>
</svg>
