<svg width="48" height="41" viewBox="0 0 48 41" fill="none" xmlns="http://www.w3.org/2000/svg">
<rect x="0.5" y="0.759766" width="47" height="39" rx="3.5" fill="white"/>
<rect x="0.5" y="0.759766" width="47" height="39" rx="3.5" stroke="#DDDFE8"/>
<path fill-rule="evenodd" clip-rule="evenodd" d="M27.3539 13.9057C27.4005 13.9521 27.4374 14.0073 27.4626 14.068C27.4878 14.1288 27.5008 14.1939 27.5008 14.2597C27.5008 14.3255 27.4878 14.3906 27.4626 14.4513C27.4374 14.5121 27.4005 14.5672 27.3539 14.6137L21.7069 20.2597L27.3539 25.9057C27.4478 25.9996 27.5005 26.1269 27.5005 26.2597C27.5005 26.3925 27.4478 26.5198 27.3539 26.6137C27.26 26.7076 27.1327 26.7603 26.9999 26.7603C26.8671 26.7603 26.7398 26.7076 26.6459 26.6137L20.6459 20.6137C20.5994 20.5672 20.5624 20.5121 20.5372 20.4513C20.512 20.3906 20.499 20.3254 20.499 20.2597C20.499 20.1939 20.512 20.1288 20.5372 20.068C20.5624 20.0073 20.5994 19.9521 20.6459 19.9057L26.6459 13.9057C26.6924 13.8591 26.7475 13.8222 26.8083 13.797C26.869 13.7718 26.9342 13.7588 26.9999 13.7588C27.0657 13.7588 27.1308 13.7718 27.1916 13.797C27.2523 13.8222 27.3075 13.8591 27.3539 13.9057Z" fill="#ADB5BD"/>
</svg>
