<svg width="25" height="24" viewBox="0 0 25 24" fill="none" xmlns="http://www.w3.org/2000/svg">
<g clip-path="url(#clip0_15_386)">
<path fill-rule="evenodd" clip-rule="evenodd" d="M18.981 9.00023C18.9841 10.4466 18.5195 11.8551 17.6565 13.0157L12.231 20.2502L6.80546 13.0157C6.17022 12.1575 5.74764 11.1608 5.57244 10.1075C5.39724 9.05422 5.47442 7.97439 5.79763 6.95673C6.12084 5.93906 6.68087 5.01259 7.4317 4.25342C8.18254 3.49424 9.10277 2.92402 10.1168 2.58959C11.1308 2.25516 12.2097 2.16606 13.2649 2.32962C14.3201 2.49317 15.3214 2.90472 16.1866 3.53044C17.0518 4.15616 17.7562 4.97822 18.242 5.92908C18.7277 6.87994 18.981 7.93247 18.981 9.00023ZM21.231 9.00023C21.231 11.0102 20.5725 12.8642 19.461 14.3612L13.6365 22.1252L12.231 24.0002L10.824 22.1252L5.00096 14.3612C4.15299 13.2174 3.58852 11.8886 3.35394 10.4842C3.11935 9.07976 3.22135 7.6397 3.65154 6.28235C4.08173 4.92499 4.82785 3.68908 5.82858 2.67616C6.82931 1.66323 8.0561 0.902207 9.40814 0.455608C10.7602 0.00900815 12.1989 -0.110419 13.6061 0.107139C15.0133 0.324697 16.3487 0.873031 17.5028 1.70709C18.6568 2.54114 19.5965 3.63712 20.2446 4.90496C20.8927 6.17281 21.2308 7.57634 21.231 9.00023ZM12.231 12.0002C13.0266 12.0002 13.7897 11.6842 14.3523 11.1216C14.9149 10.5589 15.231 9.79588 15.231 9.00023C15.231 8.20458 14.9149 7.44152 14.3523 6.87891C13.7897 6.3163 13.0266 6.00023 12.231 6.00023C11.4353 6.00023 10.6722 6.3163 10.1096 6.87891C9.54703 7.44152 9.23096 8.20458 9.23096 9.00023C9.23096 9.79588 9.54703 10.5589 10.1096 11.1216C10.6722 11.6842 11.4353 12.0002 12.231 12.0002Z" fill="#161917"/>
</g>
<defs>
<clipPath id="clip0_15_386">
<rect width="24" height="24" fill="white" transform="translate(0.230957)"/>
</clipPath>
</defs>
</svg>
