<svg width="24" height="26" viewBox="0 0 24 26" fill="none" xmlns="http://www.w3.org/2000/svg">
<path d="M9.5 16.7984V9.33173C9.50015 9.23831 9.52442 9.14665 9.57026 9.06636C9.61611 8.98607 9.68184 8.9201 9.76057 8.87536C9.83931 8.83063 9.92814 8.80878 10.0178 8.8121C10.1074 8.81542 10.1945 8.84379 10.27 8.89423L15.846 12.6265C15.9166 12.6736 15.9747 12.7385 16.0149 12.8151C16.0552 12.8918 16.0763 12.9777 16.0763 13.0651C16.0763 13.1524 16.0552 13.2384 16.0149 13.315C15.9747 13.3916 15.9166 13.4565 15.846 13.5036L10.27 17.2369C10.1945 17.2874 10.1074 17.3158 10.0178 17.3191C9.92814 17.3224 9.83931 17.3005 9.76057 17.2558C9.68184 17.2111 9.61611 17.1451 9.57026 17.0648C9.52442 16.9845 9.50015 16.8929 9.5 16.7994V16.7984Z" fill="white"/>
<path d="M1 13.065C1 6.7369 5.925 1.60669 12 1.60669C18.075 1.60669 23 6.7369 23 13.065C23 19.3931 18.075 24.5234 12 24.5234C5.925 24.5234 1 19.3931 1 13.065ZM12 3.16919C9.48044 3.16919 7.06408 4.21178 5.28249 6.06761C3.50089 7.92344 2.5 10.4405 2.5 13.065C2.5 15.6896 3.50089 18.2066 5.28249 20.0624C7.06408 21.9183 9.48044 22.9609 12 22.9609C14.5196 22.9609 16.9359 21.9183 18.7175 20.0624C20.4991 18.2066 21.5 15.6896 21.5 13.065C21.5 10.4405 20.4991 7.92344 18.7175 6.06761C16.9359 4.21178 14.5196 3.16919 12 3.16919Z" fill="white"/>
</svg>
