<svg width="25" height="24" viewBox="0 0 25 24" fill="none" xmlns="http://www.w3.org/2000/svg">
<path d="M7.48495 18.494L8.20895 18.917C9.42989 19.6291 10.8185 20.0029 12.2319 20C13.8142 20 15.3609 19.5308 16.6765 18.6518C17.9921 17.7727 19.0175 16.5233 19.623 15.0615C20.2285 13.5997 20.3869 11.9911 20.0782 10.4393C19.7695 8.88743 19.0076 7.46197 17.8888 6.34315C16.77 5.22433 15.3445 4.4624 13.7927 4.15372C12.2408 3.84504 10.6323 4.00346 9.17048 4.60896C7.70867 5.21447 6.45924 6.23984 5.58019 7.55544C4.70114 8.87103 4.23195 10.4177 4.23195 12C4.22903 13.4139 4.60322 14.8029 5.31595 16.024L5.73795 16.748L5.08495 19.149L7.48495 18.494ZM2.23595 22L3.58795 17.032C2.69704 15.5049 2.229 13.768 2.23195 12C2.23195 6.477 6.70895 2 12.2319 2C17.7549 2 22.2319 6.477 22.2319 12C22.2319 17.523 17.7549 22 12.2319 22C10.4647 22.0029 8.7286 21.5352 7.20195 20.645L2.23595 22ZM8.62295 7.308C8.75695 7.298 8.89195 7.298 9.02595 7.304C9.07995 7.308 9.13395 7.314 9.18795 7.32C9.34695 7.338 9.52195 7.435 9.58095 7.569C9.87895 8.245 10.1689 8.926 10.4489 9.609C10.5109 9.761 10.4739 9.956 10.3559 10.146C10.2959 10.243 10.2019 10.379 10.0929 10.518C9.97995 10.663 9.73695 10.929 9.73695 10.929C9.73695 10.929 9.63795 11.047 9.67595 11.194C9.68995 11.25 9.73595 11.331 9.77795 11.399L9.83695 11.494C10.0929 11.921 10.4369 12.354 10.8569 12.762C10.9769 12.878 11.0939 12.997 11.2199 13.108C11.6879 13.521 12.2179 13.858 12.7899 14.108L12.7949 14.11C12.8799 14.147 12.9229 14.167 13.0469 14.22C13.1089 14.246 13.1729 14.268 13.2379 14.286C13.3051 14.3031 13.3759 14.2999 13.4412 14.2767C13.5065 14.2536 13.5635 14.2116 13.6049 14.156C14.3289 13.279 14.3949 13.222 14.4009 13.222V13.224C14.4512 13.1771 14.511 13.1415 14.5762 13.1196C14.6414 13.0977 14.7105 13.09 14.7789 13.097C14.8389 13.101 14.8999 13.112 14.9559 13.137C15.4869 13.38 16.3559 13.759 16.3559 13.759L16.9379 14.02C17.0359 14.067 17.1249 14.178 17.1279 14.285C17.1319 14.352 17.1379 14.46 17.1149 14.658C17.0829 14.917 17.0049 15.228 16.9269 15.391C16.8735 15.5022 16.8026 15.6042 16.7169 15.693C16.616 15.7989 16.5056 15.8953 16.3869 15.981C16.3049 16.043 16.2619 16.071 16.2619 16.071C16.1375 16.1499 16.0098 16.2233 15.8789 16.291C15.6215 16.4278 15.3371 16.5063 15.0459 16.521C14.8609 16.531 14.6759 16.545 14.4899 16.535C14.4819 16.535 13.9219 16.448 13.9219 16.448C12.5002 16.074 11.1853 15.3735 10.0819 14.402C9.85595 14.203 9.64595 13.989 9.43195 13.776C8.54395 12.891 7.87095 11.936 7.46195 11.034C7.25366 10.5915 7.1412 10.11 7.13195 9.621C7.12819 9.01375 7.32701 8.42257 7.69695 7.941C7.76995 7.847 7.83895 7.749 7.95795 7.636C8.08395 7.516 8.16495 7.452 8.25195 7.408C8.36762 7.35003 8.49381 7.31602 8.62295 7.308Z" fill="#161917"/>
</svg>
