<svg width="26" height="27" viewBox="0 0 26 27" fill="none" xmlns="http://www.w3.org/2000/svg">
<path fill-rule="evenodd" clip-rule="evenodd" d="M11.6981 1.40261C12.1763 0.25512 13.8019 0.25512 14.28 1.40261L16.7986 7.44737C17.0019 7.93517 17.4785 8.25291 18.0069 8.25291H24.6303C25.8481 8.25291 26.458 9.72533 25.5969 10.5865L20.24 15.9434C19.9039 16.2795 19.7764 16.7715 19.907 17.2286L22.0314 24.664C22.3901 25.9194 20.9901 26.9413 19.9037 26.2171L13.7152 22.0914C13.2755 21.7982 12.7026 21.7982 12.2629 22.0914L6.08469 26.2102C4.9948 26.9368 3.59028 25.9116 3.95014 24.6521L6.07114 17.2286C6.20174 16.7715 6.07426 16.2795 5.73811 15.9434L0.407686 10.6129C-0.463219 9.74203 0.153593 8.25291 1.38524 8.25291H7.97116C8.49961 8.25291 8.97623 7.93517 9.17948 7.44737L11.6981 1.40261Z" fill="#FAD43B"/>
</svg>
