<svg width="22" height="22" viewBox="0 0 22 22" fill="none" xmlns="http://www.w3.org/2000/svg">
<path fill-rule="evenodd" clip-rule="evenodd" d="M10.1637 0.988363C10.5594 0.0387096 11.9048 0.0387096 12.3004 0.988363L14.3849 5.99097C14.5531 6.39467 14.9475 6.65763 15.3849 6.65763H20.8663C21.8742 6.65763 22.3789 7.87619 21.6662 8.58887L17.2329 13.0222C16.9547 13.3004 16.8492 13.7075 16.9573 14.0858L18.7154 20.2393C19.0123 21.2783 17.8537 22.124 16.9546 21.5246L11.833 18.1103C11.4691 17.8677 10.995 17.8677 10.6312 18.1103L5.51807 21.519C4.61608 22.1203 3.45372 21.2718 3.75154 20.2295L5.50686 14.0858C5.61495 13.7075 5.50944 13.3004 5.23124 13.0222L0.81982 8.61077C0.0990646 7.89001 0.609535 6.65763 1.62884 6.65763H7.0793C7.51665 6.65763 7.9111 6.39467 8.0793 5.99097L10.1637 0.988363Z" fill="#FAD43B"/>
</svg>
