<svg width="24" height="25" viewBox="0 0 24 25" fill="none" xmlns="http://www.w3.org/2000/svg">
<path d="M8.25 9.06738C8.66421 9.06738 9 9.40317 9 9.81738V18.8174C9 19.2316 8.66421 19.5674 8.25 19.5674C7.83579 19.5674 7.5 19.2316 7.5 18.8174V9.81738C7.5 9.40317 7.83579 9.06738 8.25 9.06738Z" fill="#737171"/>
<path d="M12 9.06738C12.4142 9.06738 12.75 9.40317 12.75 9.81738V18.8174C12.75 19.2316 12.4142 19.5674 12 19.5674C11.5858 19.5674 11.25 19.2316 11.25 18.8174V9.81738C11.25 9.40317 11.5858 9.06738 12 9.06738Z" fill="#737171"/>
<path d="M16.5 9.81738C16.5 9.40317 16.1642 9.06738 15.75 9.06738C15.3358 9.06738 15 9.40317 15 9.81738V18.8174C15 19.2316 15.3358 19.5674 15.75 19.5674C16.1642 19.5674 16.5 19.2316 16.5 18.8174V9.81738Z" fill="#737171"/>
<path d="M21.75 5.31738C21.75 6.14581 21.0784 6.81738 20.25 6.81738H19.5V20.3174C19.5 21.9742 18.1569 23.3174 16.5 23.3174H7.5C5.84315 23.3174 4.5 21.9742 4.5 20.3174V6.81738H3.75C2.92157 6.81738 2.25 6.14581 2.25 5.31738V3.81738C2.25 2.98896 2.92157 2.31738 3.75 2.31738H9C9 1.48896 9.67157 0.817383 10.5 0.817383H13.5C14.3284 0.817383 15 1.48896 15 2.31738H20.25C21.0784 2.31738 21.75 2.98896 21.75 3.81738V5.31738ZM6.17705 6.81738L6 6.90591V20.3174C6 21.1458 6.67157 21.8174 7.5 21.8174H16.5C17.3284 21.8174 18 21.1458 18 20.3174V6.90591L17.8229 6.81738H6.17705ZM3.75 5.31738H20.25V3.81738H3.75V5.31738Z" fill="#737171"/>
</svg>
